<svg width="0" height="0" style="position:absolute"><symbol viewBox="0 0 32 32" id="arrow-right" xmlns="http://www.w3.org/2000/svg"><path d="M13 11l6 6-6 6"/></symbol><symbol viewBox="0 0 32 32" id="burger" xmlns="http://www.w3.org/2000/svg"><path d="M6 8h20v2H6zM6 15h20v2H6zM6 22h20v2H6z"/></symbol><symbol viewBox="0 0 32 32" id="close" xmlns="http://www.w3.org/2000/svg"><path d="M23 10.41L21.59 9 16 14.59 10.41 9 9 10.41 14.59 16 9 21.59 10.41 23 16 17.41 21.59 23 23 21.59 17.41 16 23 10.41z"/></symbol><symbol viewBox="0 0 32 32" id="compass" xmlns="http://www.w3.org/2000/svg"><path fill-rule="evenodd" clip-rule="evenodd" d="M1 16C1 7.716 7.716 1 16 1c8.284 0 15 6.716 15 15 0 8.284-6.716 15-15 15-8.284 0-15-6.716-15-15zM16 0C7.163 0 0 7.163 0 16s7.163 16 16 16 16-7.163 16-16S24.837 0 16 0zm5.947 8.595L7.554 18.564c-.488.338-.347 1.083.216 1.145l5.44.595a.568.568 0 01.474.368l1.93 5.12c.2.53.957.482 1.163-.075l6.075-16.42a.592.592 0 00-.905-.702z"/></symbol><symbol viewBox="0 0 32 32" id="heart" xmlns="http://www.w3.org/2000/svg"><path d="M16 23.012l-1.088-.99C11.05 18.52 8.5 16.21 8.5 13.376a4.085 4.085 0 014.125-4.125c1.305 0 2.557.607 3.375 1.568a4.491 4.491 0 013.375-1.568 4.085 4.085 0 014.125 4.125c0 2.835-2.55 5.145-6.413 8.655L16 23.012z"/></symbol><symbol viewBox="0 0 88 32" id="logo-studika" xmlns="http://www.w3.org/2000/svg"><path d="M7.851 19.498h2.51c-.174 1.172-.692 2.113-1.555 2.823-.852.71-1.942 1.065-3.27 1.065-1.737 0-3.097-.543-4.08-1.63C.487 20.66 0 19.214 0 17.417c0-1.796.491-3.237 1.473-4.324.982-1.097 2.336-1.645 4.063-1.645 1.263 0 2.315.328 3.157.984.842.645 1.36 1.506 1.554 2.581H7.72c-.27-.946-.998-1.42-2.185-1.42-.993 0-1.753.36-2.282 1.082-.518.71-.777 1.624-.777 2.742 0 1.12.259 2.039.777 2.76.529.71 1.29 1.064 2.282 1.064.615 0 1.123-.15 1.522-.451.41-.312.674-.743.793-1.291zM22.012 11.656v2.114h-3.594v9.407h-2.412V13.77h-3.593v-2.114h9.599zM28.69 16.82h.453l2.444-5.164h2.444l-5.536 11.52h-2.412l1.651-3.452-4.273-8.068h2.525l2.703 5.164zM45.164 21.03h1.65V26h-2.346v-2.823h-7.592V26h-2.347v-4.97h1.197c.918-1.624 1.376-3.904 1.376-6.84v-2.534h8.062v9.375zm-2.348 0v-7.228h-3.48v1.017c0 2.689-.388 4.76-1.165 6.212h4.645zM49.556 11.656h2.25v8.035h.42l4.161-8.034h3.254v11.52h-2.267v-8.213h-.42l-4.258 8.213h-3.14v-11.52zM64.337 23.177v-11.52h2.412v4.501h2.735l2.12-4.502h2.494l-2.59 5.6 2.735 5.92h-2.492l-2.25-4.84h-2.752v4.84h-2.412zM85.556 23.177l-.94-3.114h-4.402l-.94 3.114h-2.379l3.675-11.52h3.74L88 23.176h-2.444zm-3.513-9.213l-1.214 4.001h3.14l-1.214-4.001h-.712zM38.158 2H35.63l-3.035 6.05h2.53L38.157 2z"/></symbol><symbol viewBox="0 0 32 32" id="search" xmlns="http://www.w3.org/2000/svg"><path fill-rule="evenodd" clip-rule="evenodd" d="M9.7 15.65a5.95 5.95 0 1110.236 4.127.848.848 0 00-.159.159A5.95 5.95 0 019.7 15.65zm10.725 5.977a7.65 7.65 0 111.202-1.202l3.124 3.124a.85.85 0 01-1.202 1.202l-3.124-3.124z"/></symbol></svg>