<svg width="32" height="32" viewBox="0 0 32 32" fill="none" xmlns="http://www.w3.org/2000/svg">
<path fill-rule="evenodd" clip-rule="evenodd" d="M1 16C1 7.71573 7.71573 1 16 1C24.2843 1 31 7.71573 31 16C31 24.2843 24.2843 31 16 31C7.71573 31 1 24.2843 1 16ZM16 0C7.16344 0 0 7.16344 0 16C0 24.8366 7.16344 32 16 32C24.8366 32 32 24.8366 32 16C32 7.16344 24.8366 0 16 0ZM21.9474 8.59478L7.55436 18.5636C7.06633 18.9016 7.20691 19.6469 7.77034 19.7086L13.2102 20.304C13.427 20.3277 13.6073 20.4675 13.6842 20.6716L15.6139 25.7925C15.8138 26.3228 16.5707 26.2736 16.7767 25.7168L22.8522 9.29656C23.0662 8.7181 22.4545 8.24359 21.9474 8.59478Z" fill="#A7A7A7"/>
</svg>
